<mxfile host="Electron" modified="2023-12-04T11:27:17.423Z" agent="Mozilla/5.0 (Windows NT 10.0; Win64; x64) AppleWebKit/537.36 (KHTML, like Gecko) draw.io/21.6.8 Chrome/114.0.5735.289 Electron/25.5.0 Safari/537.36" etag="66c3rvB9hxVLIfKw8khL" version="21.6.8" type="device">
  <diagram id="C5RBs43oDa-KdzZeNtuy" name="Page-1">
    <mxGraphModel dx="1902" dy="518" grid="1" gridSize="10" guides="1" tooltips="1" connect="1" arrows="1" fold="1" page="1" pageScale="1" pageWidth="827" pageHeight="1169" math="0" shadow="0">
      <root>
        <mxCell id="WIyWlLk6GJQsqaUBKTNV-0" />
        <mxCell id="WIyWlLk6GJQsqaUBKTNV-1" parent="WIyWlLk6GJQsqaUBKTNV-0" />
        <mxCell id="PGQp6En7zRqwjc5P3Mbo-38" style="edgeStyle=orthogonalEdgeStyle;shape=link;rounded=0;orthogonalLoop=1;jettySize=auto;html=1;entryX=0;entryY=0.5;entryDx=0;entryDy=0;" edge="1" parent="WIyWlLk6GJQsqaUBKTNV-1" source="WIyWlLk6GJQsqaUBKTNV-3" target="PGQp6En7zRqwjc5P3Mbo-2">
          <mxGeometry relative="1" as="geometry" />
        </mxCell>
        <mxCell id="PGQp6En7zRqwjc5P3Mbo-43" value="1" style="edgeLabel;html=1;align=center;verticalAlign=middle;resizable=0;points=[];" vertex="1" connectable="0" parent="PGQp6En7zRqwjc5P3Mbo-38">
          <mxGeometry x="-0.748" y="6" relative="1" as="geometry">
            <mxPoint x="7" y="6" as="offset" />
          </mxGeometry>
        </mxCell>
        <mxCell id="PGQp6En7zRqwjc5P3Mbo-47" style="edgeStyle=orthogonalEdgeStyle;shape=link;rounded=0;orthogonalLoop=1;jettySize=auto;html=1;" edge="1" parent="WIyWlLk6GJQsqaUBKTNV-1" source="PGQp6En7zRqwjc5P3Mbo-48">
          <mxGeometry relative="1" as="geometry">
            <mxPoint x="-740" y="130" as="targetPoint" />
          </mxGeometry>
        </mxCell>
        <mxCell id="WIyWlLk6GJQsqaUBKTNV-3" value="Personen" style="rounded=1;whiteSpace=wrap;html=1;fontSize=12;glass=0;strokeWidth=1;shadow=0;" parent="WIyWlLk6GJQsqaUBKTNV-1" vertex="1">
          <mxGeometry x="-800" width="120" height="40" as="geometry" />
        </mxCell>
        <mxCell id="WIyWlLk6GJQsqaUBKTNV-5" value="" style="edgeStyle=orthogonalEdgeStyle;rounded=0;html=1;jettySize=auto;orthogonalLoop=1;fontSize=11;endArrow=block;endFill=0;endSize=8;strokeWidth=1;shadow=0;labelBackgroundColor=none;shape=link;" parent="WIyWlLk6GJQsqaUBKTNV-1" source="WIyWlLk6GJQsqaUBKTNV-6" target="WIyWlLk6GJQsqaUBKTNV-7" edge="1">
          <mxGeometry y="10" relative="1" as="geometry">
            <mxPoint as="offset" />
          </mxGeometry>
        </mxCell>
        <mxCell id="PGQp6En7zRqwjc5P3Mbo-44" value="m" style="edgeLabel;html=1;align=center;verticalAlign=middle;resizable=0;points=[];" vertex="1" connectable="0" parent="WIyWlLk6GJQsqaUBKTNV-5">
          <mxGeometry x="0.3333" relative="1" as="geometry">
            <mxPoint as="offset" />
          </mxGeometry>
        </mxCell>
        <mxCell id="PGQp6En7zRqwjc5P3Mbo-36" style="edgeStyle=orthogonalEdgeStyle;rounded=0;orthogonalLoop=1;jettySize=auto;html=1;shape=link;" edge="1" parent="WIyWlLk6GJQsqaUBKTNV-1" source="WIyWlLk6GJQsqaUBKTNV-6" target="PGQp6En7zRqwjc5P3Mbo-1">
          <mxGeometry relative="1" as="geometry" />
        </mxCell>
        <mxCell id="PGQp6En7zRqwjc5P3Mbo-45" value="1" style="edgeLabel;html=1;align=center;verticalAlign=middle;resizable=0;points=[];" vertex="1" connectable="0" parent="PGQp6En7zRqwjc5P3Mbo-36">
          <mxGeometry x="0.16" y="-1" relative="1" as="geometry">
            <mxPoint x="1" as="offset" />
          </mxGeometry>
        </mxCell>
        <mxCell id="WIyWlLk6GJQsqaUBKTNV-6" value="hat" style="rhombus;whiteSpace=wrap;html=1;shadow=0;fontFamily=Helvetica;fontSize=12;align=center;strokeWidth=1;spacing=6;spacingTop=-4;" parent="WIyWlLk6GJQsqaUBKTNV-1" vertex="1">
          <mxGeometry x="-430" y="180" width="60" height="40" as="geometry" />
        </mxCell>
        <mxCell id="PGQp6En7zRqwjc5P3Mbo-3" style="edgeStyle=orthogonalEdgeStyle;rounded=0;orthogonalLoop=1;jettySize=auto;html=1;shape=link;entryX=1;entryY=0.5;entryDx=0;entryDy=0;" edge="1" parent="WIyWlLk6GJQsqaUBKTNV-1" source="WIyWlLk6GJQsqaUBKTNV-7" target="PGQp6En7zRqwjc5P3Mbo-2">
          <mxGeometry relative="1" as="geometry" />
        </mxCell>
        <mxCell id="PGQp6En7zRqwjc5P3Mbo-30" value="m" style="edgeLabel;html=1;align=center;verticalAlign=middle;resizable=0;points=[];" vertex="1" connectable="0" parent="PGQp6En7zRqwjc5P3Mbo-3">
          <mxGeometry x="-0.08" y="1" relative="1" as="geometry">
            <mxPoint x="1" y="27" as="offset" />
          </mxGeometry>
        </mxCell>
        <mxCell id="WIyWlLk6GJQsqaUBKTNV-7" value="Teilnehmer" style="rounded=1;whiteSpace=wrap;html=1;fontSize=12;glass=0;strokeWidth=1;shadow=0;" parent="WIyWlLk6GJQsqaUBKTNV-1" vertex="1">
          <mxGeometry x="-460" y="80" width="120" height="40" as="geometry" />
        </mxCell>
        <mxCell id="PGQp6En7zRqwjc5P3Mbo-1" value="Veranstaltung" style="rounded=1;whiteSpace=wrap;html=1;fontSize=12;glass=0;strokeWidth=1;shadow=0;" vertex="1" parent="WIyWlLk6GJQsqaUBKTNV-1">
          <mxGeometry x="-460" y="270" width="120" height="40" as="geometry" />
        </mxCell>
        <mxCell id="PGQp6En7zRqwjc5P3Mbo-2" value="hat" style="rhombus;whiteSpace=wrap;html=1;shadow=0;fontFamily=Helvetica;fontSize=12;align=center;strokeWidth=1;spacing=6;spacingTop=-4;" vertex="1" parent="WIyWlLk6GJQsqaUBKTNV-1">
          <mxGeometry x="-480" width="60" height="40" as="geometry" />
        </mxCell>
        <mxCell id="PGQp6En7zRqwjc5P3Mbo-6" value="Kursleiter" style="rounded=1;whiteSpace=wrap;html=1;fontSize=12;glass=0;strokeWidth=1;shadow=0;" vertex="1" parent="WIyWlLk6GJQsqaUBKTNV-1">
          <mxGeometry x="-800" y="270" width="120" height="40" as="geometry" />
        </mxCell>
        <mxCell id="PGQp6En7zRqwjc5P3Mbo-34" style="edgeStyle=orthogonalEdgeStyle;rounded=0;orthogonalLoop=1;jettySize=auto;html=1;shape=link;entryX=1;entryY=0.5;entryDx=0;entryDy=0;" edge="1" parent="WIyWlLk6GJQsqaUBKTNV-1" source="PGQp6En7zRqwjc5P3Mbo-7" target="PGQp6En7zRqwjc5P3Mbo-25">
          <mxGeometry relative="1" as="geometry" />
        </mxCell>
        <mxCell id="PGQp6En7zRqwjc5P3Mbo-55" value="1" style="edgeLabel;html=1;align=center;verticalAlign=middle;resizable=0;points=[];" vertex="1" connectable="0" parent="PGQp6En7zRqwjc5P3Mbo-34">
          <mxGeometry x="-0.161" relative="1" as="geometry">
            <mxPoint as="offset" />
          </mxGeometry>
        </mxCell>
        <mxCell id="PGQp6En7zRqwjc5P3Mbo-7" value="Kurs" style="rounded=1;whiteSpace=wrap;html=1;fontSize=12;glass=0;strokeWidth=1;shadow=0;" vertex="1" parent="WIyWlLk6GJQsqaUBKTNV-1">
          <mxGeometry x="-140" y="270" width="120" height="40" as="geometry" />
        </mxCell>
        <mxCell id="PGQp6En7zRqwjc5P3Mbo-12" style="edgeStyle=orthogonalEdgeStyle;rounded=0;orthogonalLoop=1;jettySize=auto;html=1;entryX=1;entryY=0.5;entryDx=0;entryDy=0;shape=link;" edge="1" parent="WIyWlLk6GJQsqaUBKTNV-1" source="PGQp6En7zRqwjc5P3Mbo-9" target="PGQp6En7zRqwjc5P3Mbo-6">
          <mxGeometry relative="1" as="geometry" />
        </mxCell>
        <mxCell id="PGQp6En7zRqwjc5P3Mbo-42" value="mc" style="edgeLabel;html=1;align=center;verticalAlign=middle;resizable=0;points=[];" vertex="1" connectable="0" parent="PGQp6En7zRqwjc5P3Mbo-12">
          <mxGeometry x="0.3778" y="2" relative="1" as="geometry">
            <mxPoint x="8" as="offset" />
          </mxGeometry>
        </mxCell>
        <mxCell id="PGQp6En7zRqwjc5P3Mbo-33" style="edgeStyle=orthogonalEdgeStyle;rounded=0;orthogonalLoop=1;jettySize=auto;html=1;entryX=0;entryY=0.5;entryDx=0;entryDy=0;shape=link;" edge="1" parent="WIyWlLk6GJQsqaUBKTNV-1" source="PGQp6En7zRqwjc5P3Mbo-9" target="PGQp6En7zRqwjc5P3Mbo-1">
          <mxGeometry relative="1" as="geometry">
            <mxPoint x="-730" y="330" as="targetPoint" />
          </mxGeometry>
        </mxCell>
        <mxCell id="PGQp6En7zRqwjc5P3Mbo-54" value="m" style="edgeLabel;html=1;align=center;verticalAlign=middle;resizable=0;points=[];" vertex="1" connectable="0" parent="PGQp6En7zRqwjc5P3Mbo-33">
          <mxGeometry x="0.1769" y="-3" relative="1" as="geometry">
            <mxPoint as="offset" />
          </mxGeometry>
        </mxCell>
        <mxCell id="PGQp6En7zRqwjc5P3Mbo-9" value="hat" style="rhombus;whiteSpace=wrap;html=1;shadow=0;fontFamily=Helvetica;fontSize=12;align=center;strokeWidth=1;spacing=6;spacingTop=-4;" vertex="1" parent="WIyWlLk6GJQsqaUBKTNV-1">
          <mxGeometry x="-590" y="270" width="60" height="40" as="geometry" />
        </mxCell>
        <mxCell id="PGQp6En7zRqwjc5P3Mbo-35" style="edgeStyle=orthogonalEdgeStyle;rounded=0;orthogonalLoop=1;jettySize=auto;html=1;shape=link;" edge="1" parent="WIyWlLk6GJQsqaUBKTNV-1" source="PGQp6En7zRqwjc5P3Mbo-20" target="PGQp6En7zRqwjc5P3Mbo-1">
          <mxGeometry relative="1" as="geometry" />
        </mxCell>
        <mxCell id="PGQp6En7zRqwjc5P3Mbo-39" value="mc" style="edgeLabel;html=1;align=center;verticalAlign=middle;resizable=0;points=[];" vertex="1" connectable="0" parent="PGQp6En7zRqwjc5P3Mbo-35">
          <mxGeometry x="-0.8253" relative="1" as="geometry">
            <mxPoint y="-10" as="offset" />
          </mxGeometry>
        </mxCell>
        <mxCell id="PGQp6En7zRqwjc5P3Mbo-40" value="m" style="edgeLabel;html=1;align=center;verticalAlign=middle;resizable=0;points=[];" vertex="1" connectable="0" parent="PGQp6En7zRqwjc5P3Mbo-35">
          <mxGeometry x="0.7958" y="-4" relative="1" as="geometry">
            <mxPoint x="-4" y="3" as="offset" />
          </mxGeometry>
        </mxCell>
        <mxCell id="PGQp6En7zRqwjc5P3Mbo-20" value="Standort" style="rounded=1;whiteSpace=wrap;html=1;fontSize=12;glass=0;strokeWidth=1;shadow=0;" vertex="1" parent="WIyWlLk6GJQsqaUBKTNV-1">
          <mxGeometry x="-460" y="480" width="120" height="40" as="geometry" />
        </mxCell>
        <mxCell id="PGQp6En7zRqwjc5P3Mbo-41" value="m" style="edgeStyle=orthogonalEdgeStyle;shape=link;rounded=0;orthogonalLoop=1;jettySize=auto;html=1;" edge="1" parent="WIyWlLk6GJQsqaUBKTNV-1" source="PGQp6En7zRqwjc5P3Mbo-25" target="PGQp6En7zRqwjc5P3Mbo-1">
          <mxGeometry x="0.1429" relative="1" as="geometry">
            <mxPoint as="offset" />
          </mxGeometry>
        </mxCell>
        <mxCell id="PGQp6En7zRqwjc5P3Mbo-25" value="hat" style="rhombus;whiteSpace=wrap;html=1;shadow=0;fontFamily=Helvetica;fontSize=12;align=center;strokeWidth=1;spacing=6;spacingTop=-4;" vertex="1" parent="WIyWlLk6GJQsqaUBKTNV-1">
          <mxGeometry x="-270" y="270" width="60" height="40" as="geometry" />
        </mxCell>
        <mxCell id="PGQp6En7zRqwjc5P3Mbo-28" style="edgeStyle=orthogonalEdgeStyle;rounded=0;orthogonalLoop=1;jettySize=auto;html=1;exitX=0.5;exitY=1;exitDx=0;exitDy=0;" edge="1" parent="WIyWlLk6GJQsqaUBKTNV-1" source="PGQp6En7zRqwjc5P3Mbo-7" target="PGQp6En7zRqwjc5P3Mbo-7">
          <mxGeometry relative="1" as="geometry" />
        </mxCell>
        <mxCell id="PGQp6En7zRqwjc5P3Mbo-49" value="" style="edgeStyle=orthogonalEdgeStyle;shape=link;rounded=0;orthogonalLoop=1;jettySize=auto;html=1;" edge="1" parent="WIyWlLk6GJQsqaUBKTNV-1" source="PGQp6En7zRqwjc5P3Mbo-48" target="WIyWlLk6GJQsqaUBKTNV-3">
          <mxGeometry relative="1" as="geometry" />
        </mxCell>
        <mxCell id="PGQp6En7zRqwjc5P3Mbo-50" value="m" style="edgeStyle=orthogonalEdgeStyle;shape=link;rounded=0;orthogonalLoop=1;jettySize=auto;html=1;" edge="1" parent="WIyWlLk6GJQsqaUBKTNV-1" source="WIyWlLk6GJQsqaUBKTNV-3" target="PGQp6En7zRqwjc5P3Mbo-48">
          <mxGeometry x="-0.25" relative="1" as="geometry">
            <mxPoint x="-740" y="130" as="targetPoint" />
            <mxPoint x="-740" y="40" as="sourcePoint" />
            <mxPoint as="offset" />
          </mxGeometry>
        </mxCell>
        <mxCell id="PGQp6En7zRqwjc5P3Mbo-51" style="edgeStyle=orthogonalEdgeStyle;shape=link;rounded=0;orthogonalLoop=1;jettySize=auto;html=1;entryX=0.5;entryY=0;entryDx=0;entryDy=0;" edge="1" parent="WIyWlLk6GJQsqaUBKTNV-1" source="PGQp6En7zRqwjc5P3Mbo-48" target="PGQp6En7zRqwjc5P3Mbo-6">
          <mxGeometry relative="1" as="geometry" />
        </mxCell>
        <mxCell id="PGQp6En7zRqwjc5P3Mbo-53" value="c" style="edgeLabel;html=1;align=center;verticalAlign=middle;resizable=0;points=[];" vertex="1" connectable="0" parent="PGQp6En7zRqwjc5P3Mbo-51">
          <mxGeometry x="0.2364" y="2" relative="1" as="geometry">
            <mxPoint x="-2" y="2" as="offset" />
          </mxGeometry>
        </mxCell>
        <mxCell id="PGQp6En7zRqwjc5P3Mbo-48" value="ist" style="rhombus;whiteSpace=wrap;html=1;shadow=0;fontFamily=Helvetica;fontSize=12;align=center;strokeWidth=1;spacing=6;spacingTop=-4;" vertex="1" parent="WIyWlLk6GJQsqaUBKTNV-1">
          <mxGeometry x="-770" y="120" width="60" height="40" as="geometry" />
        </mxCell>
        <mxCell id="PGQp6En7zRqwjc5P3Mbo-57" style="edgeStyle=orthogonalEdgeStyle;shape=link;rounded=0;orthogonalLoop=1;jettySize=auto;html=1;entryX=0.5;entryY=1;entryDx=0;entryDy=0;" edge="1" parent="WIyWlLk6GJQsqaUBKTNV-1" source="PGQp6En7zRqwjc5P3Mbo-56" target="PGQp6En7zRqwjc5P3Mbo-58">
          <mxGeometry relative="1" as="geometry">
            <mxPoint x="-80" y="410" as="targetPoint" />
          </mxGeometry>
        </mxCell>
        <mxCell id="PGQp6En7zRqwjc5P3Mbo-61" value="1" style="edgeLabel;html=1;align=center;verticalAlign=middle;resizable=0;points=[];" vertex="1" connectable="0" parent="PGQp6En7zRqwjc5P3Mbo-57">
          <mxGeometry x="0.0524" y="-1" relative="1" as="geometry">
            <mxPoint as="offset" />
          </mxGeometry>
        </mxCell>
        <mxCell id="PGQp6En7zRqwjc5P3Mbo-56" value="Themen" style="rounded=1;whiteSpace=wrap;html=1;fontSize=12;glass=0;strokeWidth=1;shadow=0;" vertex="1" parent="WIyWlLk6GJQsqaUBKTNV-1">
          <mxGeometry x="-140" y="480" width="120" height="40" as="geometry" />
        </mxCell>
        <mxCell id="PGQp6En7zRqwjc5P3Mbo-59" style="edgeStyle=orthogonalEdgeStyle;shape=link;rounded=0;orthogonalLoop=1;jettySize=auto;html=1;entryX=0.5;entryY=1;entryDx=0;entryDy=0;" edge="1" parent="WIyWlLk6GJQsqaUBKTNV-1" source="PGQp6En7zRqwjc5P3Mbo-58" target="PGQp6En7zRqwjc5P3Mbo-7">
          <mxGeometry relative="1" as="geometry" />
        </mxCell>
        <mxCell id="PGQp6En7zRqwjc5P3Mbo-60" value="1" style="edgeLabel;html=1;align=center;verticalAlign=middle;resizable=0;points=[];" vertex="1" connectable="0" parent="PGQp6En7zRqwjc5P3Mbo-59">
          <mxGeometry x="0.2833" y="1" relative="1" as="geometry">
            <mxPoint as="offset" />
          </mxGeometry>
        </mxCell>
        <mxCell id="PGQp6En7zRqwjc5P3Mbo-58" value="hat" style="rhombus;whiteSpace=wrap;html=1;shadow=0;fontFamily=Helvetica;fontSize=12;align=center;strokeWidth=1;spacing=6;spacingTop=-4;" vertex="1" parent="WIyWlLk6GJQsqaUBKTNV-1">
          <mxGeometry x="-110" y="370" width="60" height="40" as="geometry" />
        </mxCell>
      </root>
    </mxGraphModel>
  </diagram>
</mxfile>
